<?xml version="1.0" encoding="UTF-8"?>
<svg width="514px" height="512px" viewBox="0 0 514 512" version="1.1" xmlns="http://www.w3.org/2000/svg" xmlns:xlink="http://www.w3.org/1999/xlink">
    <!-- Generator: Sketch 60.1 (88133) - https://sketch.com -->
    <title>browser</title>
    <desc>Created with Sketch.</desc>
    <g id="Page-1" stroke="none" stroke-width="1" fill="none" fill-rule="evenodd">
        <g id="browser" fill-rule="nonzero">
            <rect id="invisible" fill-opacity="0.01" fill="#FFFFFF" x="0" y="0" width="512" height="512"></rect>
            <g id="firefox" fill="#747474">
                <path d="M514,246.08597 C514,234.675824 511.144444,217.560601 508.288888,206.150455 C499.722223,157.657328 474.022223,114.869276 442.611112,80.6388338 C436.9,72.0812234 425.477777,63.5236128 414.055556,54.9660022 C382.644444,29.2931708 345.522223,12.1779497 302.688888,3.62033919 C217.022223,-10.642345 131.355556,17.8830234 74.2444444,77.7862969 C74.2444444,77.7862969 74.2444444,74.9337602 74.2444444,74.9337602 C71.3888888,69.2286865 71.3888888,69.2286865 68.5333333,69.2286865 C68.5333333,69.2286865 68.5333333,69.2286865 68.5333333,69.2286865 C65.6777777,63.5236128 65.6777777,60.6710759 62.8222223,57.8185391 C62.8222223,57.8185391 62.8222223,57.8185391 62.8222223,57.8185391 C62.8222223,52.1134655 59.9666667,46.4083918 59.9666667,40.7033181 C51.4,43.5558549 51.4,52.1134655 48.5444444,57.8185391 C48.5444444,57.8185391 48.5444444,57.8185391 48.5444444,57.8185391 C42.8333333,63.5236128 37.1222223,72.0812234 37.1222223,80.6388338 C37.1222223,80.6388338 37.1222223,80.6388338 37.1222223,80.6388338 C34.2666667,86.3439075 28.5555556,112.016739 34.2666667,114.869276 C34.2666667,114.869276 34.2666667,114.869276 37.1222223,114.869276 C37.1222223,117.721813 37.1222223,120.57435 37.1222223,123.426886 C31.4111112,129.13196 28.5555556,131.984497 28.5555556,134.837034 C19.9888888,151.952255 11.4222222,166.214939 8.56666667,183.33016 C8.56666667,189.035234 8.56666667,191.88777 8.56666667,194.740307 C8.56666667,194.740307 8.56666667,194.740307 8.56666667,194.740307 C8.56666667,194.740307 8.56666667,191.88777 8.56666667,191.88777 C2.85555556,197.592844 2.85555556,206.150455 0,211.855529 C2.85555556,211.855529 2.85555556,209.002992 5.71111112,209.002992 C-8.56666667,283.16895 11.4222222,360.187444 57.1111112,417.238181 C125.644444,499.961748 242.722223,534.192191 345.522223,497.109211 C445.466667,460.026234 514,363.039981 514,254.643581 C514,251.791044 514,248.938507 514,246.08597 M299.833333,29.2931708 C342.666667,37.8507812 382.644444,57.8185391 414.055556,86.3439075 C416.911112,89.1964443 419.766667,94.9015181 419.766667,94.9015181 C411.2,86.3439075 391.211112,72.0812234 379.788888,77.7862969 C382.644444,86.3439075 416.911112,129.13196 419.766667,131.984497 C419.766667,131.984497 428.333333,169.067476 431.188888,171.920013 C431.188888,171.920013 431.188888,171.920013 431.188888,171.920013 C431.188888,171.920013 431.188888,171.920013 431.188888,171.920013 C431.188888,177.625086 411.2,251.791044 411.2,263.201192 C411.2,266.053729 385.5,317.39939 388.355556,317.39939 C379.788888,337.36715 371.222223,337.36715 368.366667,340.219687 C365.511112,340.219687 348.377777,345.924759 328.388888,351.629833 C311.255556,354.48237 291.266667,360.187444 276.988888,357.334907 C268.422223,357.334907 257,357.334907 248.433333,351.629833 C245.577777,348.777296 222.733333,337.36715 217.022223,334.514613 C208.455556,331.662076 202.744444,325.957002 197.033333,320.251928 C205.6,320.251928 222.733333,320.251928 228.444444,320.251928 C245.577777,317.39939 319.822223,291.726559 316.966667,280.316413 C316.966667,271.758801 302.688888,266.053729 296.977777,260.348655 C288.411112,257.496118 254.144444,263.201192 239.866667,268.906264 C239.866667,268.906264 185.611112,254.643581 171.333333,243.233433 C171.333333,240.380898 168.477778,223.265675 168.477778,220.413138 C165.622222,217.560601 177.044444,209.002992 177.044444,209.002992 C177.044444,209.002992 205.6,180.477623 205.6,177.625086 C211.311112,177.625086 217.022223,171.920013 219.877777,169.067476 C217.022223,169.067476 222.733333,166.214939 231.3,160.509865 C231.3,160.509865 231.3,160.509865 231.3,160.509865 C239.866667,154.804792 245.577777,154.804792 245.577777,146.247181 C245.577777,146.247181 259.855556,120.57435 242.722223,123.426886 C242.722223,123.426886 217.022223,120.57435 208.455556,120.57435 C199.888888,126.279423 197.033333,123.426886 188.466667,120.57435 C188.466667,120.57435 182.755556,114.869276 182.755556,112.016739 C185.611112,106.311665 205.6,63.5236128 214.166667,60.6710759 C208.455556,49.2609287 179.9,57.8185391 174.188889,66.3761496 C174.188889,66.3761496 151.344444,83.4913706 139.922222,86.3439075 C139.922222,86.3439075 139.922222,86.3439075 139.922222,86.3439075 C139.922222,83.4913706 125.644444,80.6388338 111.366667,80.6388338 C162.766667,37.8507812 231.3,17.8830234 299.833333,29.2931708 Z" id="Shape"></path>
            </g>
        </g>
    </g>
</svg>