<?xml version="1.0" encoding="UTF-8"?>
<svg width="512px" height="512px" viewBox="0 0 512 512" version="1.1" xmlns="http://www.w3.org/2000/svg" xmlns:xlink="http://www.w3.org/1999/xlink">
    <!-- Generator: Sketch 60.1 (88133) - https://sketch.com -->
    <title>chrome</title>
    <desc>Created with Sketch.</desc>
    <g id="Page-1" stroke="none" stroke-width="1" fill="none" fill-rule="evenodd">
        <g id="chrome" fill-rule="nonzero">
            <rect id="invisible" fill-opacity="0.01" fill="#FFFFFF" x="0" y="0" width="512" height="512"></rect>
            <g id="google-chrome" fill="#747474">
                <path d="M256,460.8 L344.576,307.2 L344.32,307.2 C353.024,291.84 358.4,274.688 358.4,256 C358.4,225.28 344.576,197.888 323.072,179.2 L445.696,179.2 C455.424,203.008 460.8,228.864 460.8,256 C460.8,369.152 369.152,460.8 256,460.8 M51.2,256 C51.2,218.624 61.184,183.808 78.592,153.6 L167.424,307.2 L167.68,307.2 C185.344,337.664 217.6,358.4 256,358.4 C267.52,358.4 278.528,356.096 289.024,352.512 L227.584,458.496 C128,444.672 51.2,359.424 51.2,256 M332.8,256 C332.8,298.496 298.496,332.8 256,332.8 C213.504,332.8 179.2,298.496 179.2,256 C179.2,213.504 213.504,179.2 256,179.2 C298.496,179.2 332.8,213.504 332.8,256 M256,51.2 C331.776,51.2 397.824,92.416 433.152,153.6 L256,153.6 C206.336,153.6 165.12,188.928 155.648,235.776 L94.72,130.048 C132.096,82.176 190.464,51.2 256,51.2 M256,0 C114.688,0 0,114.688 0,256 C0,397.312 114.688,512 256,512 C397.312,512 512,397.312 512,256 C512,114.688 397.312,0 256,0 Z" id="Shape"></path>
            </g>
        </g>
    </g>
</svg>