<?xml version="1.0" encoding="UTF-8"?>
<svg width="512px" height="512px" viewBox="0 0 512 512" version="1.1" xmlns="http://www.w3.org/2000/svg" xmlns:xlink="http://www.w3.org/1999/xlink">
    <!-- Generator: Sketch 60.1 (88133) - https://sketch.com -->
    <title>browser</title>
    <desc>Created with Sketch.</desc>
    <defs>
        <path d="M242.273303,351 C242.273303,333.296799 245.279035,318.941319 251.290498,307.93356 C257.301961,296.9258 271.763499,282.343356 294.675113,264.186227 C327.568024,238.312318 349.3454,216.410281 360.00724,198.480116 C370.66908,180.549952 376,161.938894 376,142.646945 C376,96.1193016 355.356863,58.8971872 314.070588,30.9806014 C283.673002,10.3268671 243.747813,0 194.295023,0 C130.777677,0 83.6500754,14.8094083 52.9122172,44.428225 C22.174359,74.0470417 4.53695324,113.14161 0,161.71193 L0,161.71193 L132.025339,178.053346 C134.974359,151.498545 141.723077,132.887488 152.271493,122.220175 C162.81991,111.552861 176.14721,106.219205 192.253394,106.219205 C207.225339,106.219205 218.397587,109.680407 225.770136,116.602813 C233.142685,123.525218 236.828959,133.227934 236.828959,145.71096 C236.828959,158.193986 227.641629,171.925315 209.266968,186.904947 C174.786124,215.502425 152.611765,235.475267 142.743891,246.823472 C132.876018,258.171678 125.446757,270.711445 120.456109,284.442774 C115.46546,298.174103 112.970136,316.047527 112.970136,338.063046 L112.970136,338.063046 L112.970136,351 L242.273303,351 Z M246,507 L246,384 L108,384 L108,507 L246,507 Z" id="path-1"></path>
    </defs>
    <g id="Page-1" stroke="none" stroke-width="1" fill="none" fill-rule="evenodd">
        <g id="browser" fill-rule="nonzero">
            <rect id="invisible" fill-opacity="0.01" fill="#FFFFFF" x="0" y="0" width="512" height="512"></rect>
            <g id="unknown" transform="translate(69.000000, 3.000000)">
                <g id="?">
                    <use fill="#000000" xlink:href="#path-1"></use>
                    <use fill="#747474" xlink:href="#path-1"></use>
                </g>
            </g>
        </g>
    </g>
</svg>